<?xml version="1.0" standalone="no"?>
<!DOCTYPE svg PUBLIC "-//W3C//DTD SVG 20010904//EN"
 "http://www.w3.org/TR/2001/REC-SVG-20010904/DTD/svg10.dtd">
<svg version="1.0" xmlns="http://www.w3.org/2000/svg"
 width="596.000000pt" height="596.000000pt" viewBox="0 0 596.000000 596.000000"
 preserveAspectRatio="xMidYMid meet">
<metadata>
Created by potrace 1.14, written by Peter Selinger 2001-2017
</metadata>
<g transform="translate(0.000000,596.000000) scale(0.100000,-0.100000)"
fill="#000000" stroke="none">
<path d="M2805 5230 c-154 -17 -388 -88 -515 -158 -155 -85 -375 -270 -400
-337 -24 -64 29 -135 101 -135 34 0 48 8 121 76 193 177 400 283 640 329 109
20 328 21 434 0 234 -45 431 -147 634 -328 76 -68 89 -76 125 -77 58 0 88 19
104 66 20 56 5 88 -73 166 -140 138 -360 272 -550 333 -187 60 -432 85 -621
65z"/>
<path d="M2745 4880 c-210 -45 -388 -138 -527 -273 -72 -70 -95 -117 -79 -160
18 -47 47 -67 96 -67 39 0 52 6 107 53 151 128 216 166 371 219 89 31 98 32
252 32 155 0 163 -1 254 -32 129 -45 235 -102 316 -170 104 -88 127 -102 163
-102 53 0 90 25 103 70 11 37 10 43 -17 87 -68 110 -334 279 -524 334 -111 32
-388 37 -515 9z"/>
<path d="M2829 4556 c-137 -29 -263 -94 -366 -190 -99 -91 -117 -146 -68 -204
51 -61 110 -50 208 36 227 201 495 200 742 -2 71 -58 85 -66 123 -66 85 0 127
61 96 139 -37 93 -242 237 -394 276 -88 23 -258 28 -341 11z"/>
<path d="M2870 4161 c-102 -33 -203 -121 -242 -209 -13 -29 -23 -79 -27 -132
l-6 -85 -475 -3 c-538 -4 -524 -2 -561 -78 -21 -44 -21 -46 -4 -89 9 -25 28
-54 42 -65 25 -20 38 -20 1370 -20 1476 0 1385 -4 1418 60 31 61 6 139 -56
172 -31 17 -68 18 -510 18 l-477 0 -4 88 c-4 72 -10 97 -35 147 -38 74 -105
138 -181 173 -45 20 -76 27 -142 29 -47 1 -96 -1 -110 -6z m171 -248 c39 -23
71 -91 67 -140 l-3 -38 -132 -3 -133 -3 0 62 c0 58 2 64 39 100 34 34 44 39
86 39 26 0 60 -7 76 -17z"/>
<path d="M2968 3373 c-659 -2 -1198 -5 -1198 -7 0 -11 75 -540 129 -911 33
-225 78 -552 101 -725 58 -450 66 -495 98 -554 34 -63 96 -111 162 -125 28 -6
144 -11 258 -11 114 0 223 -4 242 -9 19 -6 148 -15 285 -21 138 -5 331 -15
430 -20 287 -16 770 -16 790 0 9 7 30 13 48 12 17 0 37 4 43 9 7 5 16 9 20 8
12 -3 53 7 139 34 39 11 73 21 78 22 4 0 7 4 7 8 -1 4 6 15 15 24 9 8 14 22
11 30 -3 8 -1 11 5 8 5 -4 7 -16 3 -28 -6 -19 -5 -20 8 -10 8 7 19 9 24 5 4
-4 3 0 -4 10 -11 13 -10 18 6 30 21 15 42 45 24 34 -21 -13 -33 3 -20 27 10
20 10 21 -6 8 -15 -12 -16 -12 -10 5 4 10 4 16 -1 12 -4 -4 -15 -2 -23 5 -13
10 -14 9 -7 -3 7 -12 5 -12 -15 2 -17 11 -24 24 -22 40 1 17 0 20 -7 8 -10
-15 -64 -23 -55 -8 3 4 0 8 -6 8 -6 0 -8 5 -4 12 4 6 3 8 -4 4 -6 -3 -14 -1
-17 4 -4 6 -17 10 -28 9 -12 0 -33 -1 -47 0 -21 1 -22 3 -10 12 12 9 11 10 -5
4 -50 -17 -51 -17 -37 -7 17 12 -86 39 -183 47 -38 3 -77 7 -85 9 -106 21
-176 26 -190 12 -8 -8 -10 -4 -6 14 3 14 8 59 11 100 3 41 23 199 45 350 21
151 64 455 95 675 30 220 66 474 80 565 28 187 40 281 34 278 -2 -2 -543 -4
-1201 -5z m882 -255 c0 -39 -106 -755 -109 -735 -1 4 -12 -3 -25 -17 -13 -15
-28 -26 -34 -26 -6 0 -14 -21 -18 -46 -4 -26 -15 -54 -27 -65 -12 -11 -22 -30
-22 -42 -1 -12 -7 -32 -13 -43 -6 -12 -9 -24 -6 -27 3 -3 7 -21 8 -41 3 -32 1
-34 -16 -25 -15 8 -23 8 -32 -1 -8 -8 -7 -10 7 -4 14 5 16 2 11 -12 -5 -16 -4
-16 5 -4 9 12 11 10 11 -12 0 -16 -4 -28 -10 -28 -5 0 -10 -21 -10 -46 0 -25
-4 -43 -9 -39 -5 3 -12 1 -15 -4 -4 -5 -1 -13 5 -17 8 -4 9 -3 5 4 -5 8 -2 10
9 6 14 -6 14 -8 -1 -19 -11 -7 -15 -19 -11 -29 4 -9 3 -15 -1 -13 -4 3 -16 -5
-27 -16 l-20 -20 22 12 c27 14 44 14 21 0 -10 -5 -18 -15 -18 -20 0 -6 5 -7
12 -3 6 4 8 3 4 -4 -3 -6 -14 -9 -24 -7 -13 2 -18 -3 -18 -21 0 -13 4 -24 9
-24 4 0 6 -4 2 -9 -3 -5 -1 -12 5 -16 5 -3 10 -1 10 6 0 7 3 9 6 6 4 -4 2 -13
-4 -20 -7 -8 -9 -17 -5 -21 4 -4 -1 -4 -11 0 -12 5 -14 9 -6 14 9 5 8 9 -2 13
-10 3 -14 -3 -14 -18 0 -13 3 -22 7 -19 4 2 9 -3 13 -11 3 -9 0 -15 -10 -15
-8 0 -12 -5 -9 -10 4 -6 10 -8 15 -5 4 3 10 -2 13 -10 5 -11 1 -12 -19 -5 -17
7 -23 7 -19 -1 4 -5 -1 -20 -12 -32 l-18 -22 23 19 c19 16 22 17 22 3 0 -8 -6
-17 -12 -20 -7 -2 -10 -8 -6 -12 13 -13 30 7 25 31 -2 13 0 21 4 18 12 -7 11
-41 -1 -49 -6 -4 -8 -10 -5 -15 3 -5 1 -11 -5 -15 -6 -4 -8 -10 -5 -15 3 -5 1
-11 -4 -14 -5 -4 -13 -1 -17 5 -5 8 -3 9 7 4 8 -5 11 -5 7 0 -4 4 -2 15 4 24
10 12 7 12 -8 -2 -11 -9 -24 -14 -29 -10 -4 5 -2 -3 5 -16 8 -16 9 -26 2 -33
-6 -6 -8 -17 -5 -25 3 -8 0 -18 -7 -23 -9 -6 -9 -12 -1 -29 7 -11 9 -22 6 -22
-43 -10 -42 -12 10 -19 28 -4 -216 -8 -540 -8 l-590 -2 -58 408 c-33 224 -77
522 -98 662 -92 590 -109 703 -109 711 0 5 378 9 890 9 490 0 890 -1 890 -2z
m-113 -790 c-3 -8 -6 -5 -6 6 -1 11 2 17 5 13 3 -3 4 -12 1 -19z m-106 -135
c-12 -20 -14 -14 -5 12 4 9 9 14 11 11 3 -2 0 -13 -6 -23z m-106 -433 c-3 -5
-2 -10 4 -10 5 0 13 5 16 10 3 6 12 10 18 10 8 0 7 -3 -2 -9 -7 -5 -11 -13 -7
-19 7 -12 -27 -10 -36 3 -7 9 -2 25 8 25 3 0 2 -4 -1 -10z m-31 -299 c3 -5 -2
-15 -12 -22 -15 -12 -16 -12 -5 2 7 9 10 19 6 22 -3 4 -4 7 0 7 3 0 8 -4 11
-9z m1143 -255 c0 -8 -6 -12 -15 -9 -11 5 -11 7 0 14 7 5 13 9 14 9 0 0 1 -6
1 -14z"/>
<path d="M2612 2938 c-47 -16 -89 -69 -97 -120 -3 -24 -5 -288 -3 -588 3 -536
3 -546 25 -592 39 -85 139 -116 214 -65 72 48 70 23 67 683 l-3 591 -28 36
c-15 20 -36 41 -46 47 -30 16 -94 20 -129 8z"/>
<path d="M3212 2931 c-33 -16 -47 -30 -63 -65 -19 -43 -19 -65 -17 -635 l3
-589 31 -39 c38 -47 89 -68 141 -58 50 9 108 68 123 124 8 32 11 199 8 605
l-3 561 -23 36 c-44 72 -123 96 -200 60z"/>
<path d="M3735 2460 c-4 -12 -5 -24 -2 -27 3 -2 8 5 12 17 4 12 5 24 2 27 -3
2 -8 -5 -12 -17z"/>
<path d="M3625 2280 c-3 -6 1 -7 9 -4 18 7 21 14 7 14 -6 0 -13 -4 -16 -10z"/>
<path d="M4705 1171 c-3 -5 -2 -12 3 -15 5 -3 9 1 9 9 0 17 -3 19 -12 6z"/>
</g>
</svg>
